<svg width="144" height="96" viewBox="0 0 144 96" fill="none" xmlns="http://www.w3.org/2000/svg">
<circle cx="27.75" cy="27.75" r="27.75" fill="#2D3240"/>
<path d="M6.22266 72.8369L1.98633 84.5H0.254883L5.13281 71.7031H6.24902L6.22266 72.8369ZM9.77344 84.5L5.52832 72.8369L5.50195 71.7031H6.61816L11.5137 84.5H9.77344ZM9.55371 79.7627V81.1514H2.36426V79.7627H9.55371ZM14.6074 76.8184V88.1562H12.9727V74.9902H14.4668L14.6074 76.8184ZM21.0146 79.666V79.8506C21.0146 80.542 20.9326 81.1836 20.7686 81.7754C20.6045 82.3613 20.3643 82.8711 20.0479 83.3047C19.7373 83.7383 19.3535 84.0752 18.8965 84.3154C18.4395 84.5557 17.915 84.6758 17.3232 84.6758C16.7197 84.6758 16.1865 84.5762 15.7236 84.377C15.2607 84.1777 14.8682 83.8877 14.5459 83.5068C14.2236 83.126 13.9658 82.6689 13.7725 82.1357C13.585 81.6025 13.4561 81.002 13.3857 80.334V79.3496C13.4561 78.6465 13.5879 78.0166 13.7812 77.46C13.9746 76.9033 14.2295 76.4287 14.5459 76.0361C14.8682 75.6377 15.2578 75.3359 15.7148 75.1309C16.1719 74.9199 16.6992 74.8145 17.2969 74.8145C17.8945 74.8145 18.4248 74.9316 18.8877 75.166C19.3506 75.3945 19.7402 75.7227 20.0566 76.1504C20.373 76.5781 20.6104 77.0908 20.7686 77.6885C20.9326 78.2803 21.0146 78.9395 21.0146 79.666ZM19.3799 79.8506V79.666C19.3799 79.1914 19.3301 78.7461 19.2305 78.3301C19.1309 77.9082 18.9756 77.5391 18.7646 77.2227C18.5596 76.9004 18.2959 76.6484 17.9736 76.4668C17.6514 76.2793 17.2676 76.1855 16.8223 76.1855C16.4121 76.1855 16.0547 76.2559 15.75 76.3965C15.4512 76.5371 15.1963 76.7275 14.9854 76.9678C14.7744 77.2021 14.6016 77.4717 14.4668 77.7764C14.3379 78.0752 14.2412 78.3857 14.1768 78.708V80.9844C14.2939 81.3945 14.458 81.7812 14.6689 82.1445C14.8799 82.502 15.1611 82.792 15.5127 83.0146C15.8643 83.2314 16.3066 83.3398 16.8398 83.3398C17.2793 83.3398 17.6572 83.249 17.9736 83.0674C18.2959 82.8799 18.5596 82.625 18.7646 82.3027C18.9756 81.9805 19.1309 81.6113 19.2305 81.1953C19.3301 80.7734 19.3799 80.3252 19.3799 79.8506ZM24.7148 76.8184V88.1562H23.0801V74.9902H24.5742L24.7148 76.8184ZM31.1221 79.666V79.8506C31.1221 80.542 31.04 81.1836 30.876 81.7754C30.7119 82.3613 30.4717 82.8711 30.1553 83.3047C29.8447 83.7383 29.4609 84.0752 29.0039 84.3154C28.5469 84.5557 28.0225 84.6758 27.4307 84.6758C26.8271 84.6758 26.2939 84.5762 25.8311 84.377C25.3682 84.1777 24.9756 83.8877 24.6533 83.5068C24.3311 83.126 24.0732 82.6689 23.8799 82.1357C23.6924 81.6025 23.5635 81.002 23.4932 80.334V79.3496C23.5635 78.6465 23.6953 78.0166 23.8887 77.46C24.082 76.9033 24.3369 76.4287 24.6533 76.0361C24.9756 75.6377 25.3652 75.3359 25.8223 75.1309C26.2793 74.9199 26.8066 74.8145 27.4043 74.8145C28.002 74.8145 28.5322 74.9316 28.9951 75.166C29.458 75.3945 29.8477 75.7227 30.1641 76.1504C30.4805 76.5781 30.7178 77.0908 30.876 77.6885C31.04 78.2803 31.1221 78.9395 31.1221 79.666ZM29.4873 79.8506V79.666C29.4873 79.1914 29.4375 78.7461 29.3379 78.3301C29.2383 77.9082 29.083 77.5391 28.8721 77.2227C28.667 76.9004 28.4033 76.6484 28.0811 76.4668C27.7588 76.2793 27.375 76.1855 26.9297 76.1855C26.5195 76.1855 26.1621 76.2559 25.8574 76.3965C25.5586 76.5371 25.3037 76.7275 25.0928 76.9678C24.8818 77.2021 24.709 77.4717 24.5742 77.7764C24.4453 78.0752 24.3486 78.3857 24.2842 78.708V80.9844C24.4014 81.3945 24.5654 81.7812 24.7764 82.1445C24.9873 82.502 25.2686 82.792 25.6201 83.0146C25.9717 83.2314 26.4141 83.3398 26.9473 83.3398C27.3867 83.3398 27.7646 83.249 28.0811 83.0674C28.4033 82.8799 28.667 82.625 28.8721 82.3027C29.083 81.9805 29.2383 81.6113 29.3379 81.1953C29.4375 80.7734 29.4873 80.3252 29.4873 79.8506ZM43.2686 82.874V77.9785C43.2686 77.6035 43.1924 77.2783 43.04 77.0029C42.8936 76.7217 42.6709 76.5049 42.3721 76.3525C42.0732 76.2002 41.7041 76.124 41.2646 76.124C40.8545 76.124 40.4941 76.1943 40.1836 76.335C39.8789 76.4756 39.6387 76.6602 39.4629 76.8887C39.293 77.1172 39.208 77.3633 39.208 77.627H37.582C37.582 77.2871 37.6699 76.9502 37.8457 76.6162C38.0215 76.2822 38.2734 75.9805 38.6016 75.7109C38.9355 75.4355 39.334 75.2188 39.7969 75.0605C40.2656 74.8965 40.7871 74.8145 41.3613 74.8145C42.0527 74.8145 42.6621 74.9316 43.1895 75.166C43.7227 75.4004 44.1387 75.7549 44.4375 76.2295C44.7422 76.6982 44.8945 77.2871 44.8945 77.9961V82.4258C44.8945 82.7422 44.9209 83.0791 44.9736 83.4365C45.0322 83.7939 45.1172 84.1016 45.2285 84.3594V84.5H43.5322C43.4502 84.3125 43.3857 84.0635 43.3389 83.7529C43.292 83.4365 43.2686 83.1436 43.2686 82.874ZM43.5498 78.7344L43.5674 79.877H41.9238C41.4609 79.877 41.0479 79.915 40.6846 79.9912C40.3213 80.0615 40.0166 80.1699 39.7705 80.3164C39.5244 80.4629 39.3369 80.6475 39.208 80.8701C39.0791 81.0869 39.0146 81.3418 39.0146 81.6348C39.0146 81.9336 39.082 82.2061 39.2168 82.4521C39.3516 82.6982 39.5537 82.8945 39.8232 83.041C40.0986 83.1816 40.4355 83.252 40.834 83.252C41.332 83.252 41.7715 83.1465 42.1523 82.9355C42.5332 82.7246 42.835 82.4668 43.0576 82.1621C43.2861 81.8574 43.4092 81.5615 43.4268 81.2744L44.1211 82.0566C44.0801 82.3027 43.9688 82.5752 43.7871 82.874C43.6055 83.1729 43.3623 83.46 43.0576 83.7354C42.7588 84.0049 42.4014 84.2305 41.9854 84.4121C41.5752 84.5879 41.1123 84.6758 40.5967 84.6758C39.9521 84.6758 39.3867 84.5498 38.9004 84.2979C38.4199 84.0459 38.0449 83.709 37.7754 83.2871C37.5117 82.8594 37.3799 82.3818 37.3799 81.8545C37.3799 81.3447 37.4795 80.8965 37.6787 80.5098C37.8779 80.1172 38.165 79.792 38.54 79.5342C38.915 79.2705 39.3662 79.0713 39.8936 78.9365C40.4209 78.8018 41.0098 78.7344 41.6602 78.7344H43.5498ZM50.2031 83.0322L52.8047 74.9902H54.4658L51.0469 84.5H49.957L50.2031 83.0322ZM48.0322 74.9902L50.7129 83.0762L50.8975 84.5H49.8076L46.3623 74.9902H48.0322ZM61.4971 82.874V77.9785C61.4971 77.6035 61.4209 77.2783 61.2686 77.0029C61.1221 76.7217 60.8994 76.5049 60.6006 76.3525C60.3018 76.2002 59.9326 76.124 59.4932 76.124C59.083 76.124 58.7227 76.1943 58.4121 76.335C58.1074 76.4756 57.8672 76.6602 57.6914 76.8887C57.5215 77.1172 57.4365 77.3633 57.4365 77.627H55.8105C55.8105 77.2871 55.8984 76.9502 56.0742 76.6162C56.25 76.2822 56.502 75.9805 56.8301 75.7109C57.1641 75.4355 57.5625 75.2188 58.0254 75.0605C58.4941 74.8965 59.0156 74.8145 59.5898 74.8145C60.2812 74.8145 60.8906 74.9316 61.418 75.166C61.9512 75.4004 62.3672 75.7549 62.666 76.2295C62.9707 76.6982 63.123 77.2871 63.123 77.9961V82.4258C63.123 82.7422 63.1494 83.0791 63.2021 83.4365C63.2607 83.7939 63.3457 84.1016 63.457 84.3594V84.5H61.7607C61.6787 84.3125 61.6143 84.0635 61.5674 83.7529C61.5205 83.4365 61.4971 83.1436 61.4971 82.874ZM61.7783 78.7344L61.7959 79.877H60.1523C59.6895 79.877 59.2764 79.915 58.9131 79.9912C58.5498 80.0615 58.2451 80.1699 57.999 80.3164C57.7529 80.4629 57.5654 80.6475 57.4365 80.8701C57.3076 81.0869 57.2432 81.3418 57.2432 81.6348C57.2432 81.9336 57.3105 82.2061 57.4453 82.4521C57.5801 82.6982 57.7822 82.8945 58.0518 83.041C58.3271 83.1816 58.6641 83.252 59.0625 83.252C59.5605 83.252 60 83.1465 60.3809 82.9355C60.7617 82.7246 61.0635 82.4668 61.2861 82.1621C61.5146 81.8574 61.6377 81.5615 61.6553 81.2744L62.3496 82.0566C62.3086 82.3027 62.1973 82.5752 62.0156 82.874C61.834 83.1729 61.5908 83.46 61.2861 83.7354C60.9873 84.0049 60.6299 84.2305 60.2139 84.4121C59.8037 84.5879 59.3408 84.6758 58.8252 84.6758C58.1807 84.6758 57.6152 84.5498 57.1289 84.2979C56.6484 84.0459 56.2734 83.709 56.0039 83.2871C55.7402 82.8594 55.6084 82.3818 55.6084 81.8545C55.6084 81.3447 55.708 80.8965 55.9072 80.5098C56.1064 80.1172 56.3936 79.792 56.7686 79.5342C57.1436 79.2705 57.5947 79.0713 58.1221 78.9365C58.6494 78.8018 59.2383 78.7344 59.8887 78.7344H61.7783ZM67.4473 74.9902V84.5H65.8125V74.9902H67.4473ZM65.6895 72.4678C65.6895 72.2041 65.7686 71.9814 65.9268 71.7998C66.0908 71.6182 66.3311 71.5273 66.6475 71.5273C66.958 71.5273 67.1953 71.6182 67.3594 71.7998C67.5293 71.9814 67.6143 72.2041 67.6143 72.4678C67.6143 72.7197 67.5293 72.9365 67.3594 73.1182C67.1953 73.2939 66.958 73.3818 66.6475 73.3818C66.3311 73.3818 66.0908 73.2939 65.9268 73.1182C65.7686 72.9365 65.6895 72.7197 65.6895 72.4678ZM71.8242 71V84.5H70.1895V71H71.8242ZM80.042 82.874V77.9785C80.042 77.6035 79.9658 77.2783 79.8135 77.0029C79.667 76.7217 79.4443 76.5049 79.1455 76.3525C78.8467 76.2002 78.4775 76.124 78.0381 76.124C77.6279 76.124 77.2676 76.1943 76.957 76.335C76.6523 76.4756 76.4121 76.6602 76.2363 76.8887C76.0664 77.1172 75.9814 77.3633 75.9814 77.627H74.3555C74.3555 77.2871 74.4434 76.9502 74.6191 76.6162C74.7949 76.2822 75.0469 75.9805 75.375 75.7109C75.709 75.4355 76.1074 75.2188 76.5703 75.0605C77.0391 74.8965 77.5605 74.8145 78.1348 74.8145C78.8262 74.8145 79.4355 74.9316 79.9629 75.166C80.4961 75.4004 80.9121 75.7549 81.2109 76.2295C81.5156 76.6982 81.668 77.2871 81.668 77.9961V82.4258C81.668 82.7422 81.6943 83.0791 81.7471 83.4365C81.8057 83.7939 81.8906 84.1016 82.002 84.3594V84.5H80.3057C80.2236 84.3125 80.1592 84.0635 80.1123 83.7529C80.0654 83.4365 80.042 83.1436 80.042 82.874ZM80.3232 78.7344L80.3408 79.877H78.6973C78.2344 79.877 77.8213 79.915 77.458 79.9912C77.0947 80.0615 76.79 80.1699 76.5439 80.3164C76.2979 80.4629 76.1104 80.6475 75.9814 80.8701C75.8525 81.0869 75.7881 81.3418 75.7881 81.6348C75.7881 81.9336 75.8555 82.2061 75.9902 82.4521C76.125 82.6982 76.3271 82.8945 76.5967 83.041C76.8721 83.1816 77.209 83.252 77.6074 83.252C78.1055 83.252 78.5449 83.1465 78.9258 82.9355C79.3066 82.7246 79.6084 82.4668 79.8311 82.1621C80.0596 81.8574 80.1826 81.5615 80.2002 81.2744L80.8945 82.0566C80.8535 82.3027 80.7422 82.5752 80.5605 82.874C80.3789 83.1729 80.1357 83.46 79.8311 83.7354C79.5322 84.0049 79.1748 84.2305 78.7588 84.4121C78.3486 84.5879 77.8857 84.6758 77.3701 84.6758C76.7256 84.6758 76.1602 84.5498 75.6738 84.2979C75.1934 84.0459 74.8184 83.709 74.5488 83.2871C74.2852 82.8594 74.1533 82.3818 74.1533 81.8545C74.1533 81.3447 74.2529 80.8965 74.4521 80.5098C74.6514 80.1172 74.9385 79.792 75.3135 79.5342C75.6885 79.2705 76.1396 79.0713 76.667 78.9365C77.1943 78.8018 77.7832 78.7344 78.4336 78.7344H80.3232ZM84.2168 71H85.8516V82.6543L85.7109 84.5H84.2168V71ZM92.2764 79.666V79.8506C92.2764 80.542 92.1943 81.1836 92.0303 81.7754C91.8662 82.3613 91.626 82.8711 91.3096 83.3047C90.9932 83.7383 90.6064 84.0752 90.1494 84.3154C89.6924 84.5557 89.168 84.6758 88.5762 84.6758C87.9727 84.6758 87.4424 84.5732 86.9854 84.3682C86.5342 84.1572 86.1533 83.8555 85.8428 83.4629C85.5322 83.0703 85.2832 82.5957 85.0957 82.0391C84.9141 81.4824 84.7881 80.8555 84.7178 80.1582V79.3496C84.7881 78.6465 84.9141 78.0166 85.0957 77.46C85.2832 76.9033 85.5322 76.4287 85.8428 76.0361C86.1533 75.6377 86.5342 75.3359 86.9854 75.1309C87.4365 74.9199 87.9609 74.8145 88.5586 74.8145C89.1562 74.8145 89.6865 74.9316 90.1494 75.166C90.6123 75.3945 90.999 75.7227 91.3096 76.1504C91.626 76.5781 91.8662 77.0908 92.0303 77.6885C92.1943 78.2803 92.2764 78.9395 92.2764 79.666ZM90.6416 79.8506V79.666C90.6416 79.1914 90.5977 78.7461 90.5098 78.3301C90.4219 77.9082 90.2812 77.5391 90.0879 77.2227C89.8945 76.9004 89.6396 76.6484 89.3232 76.4668C89.0068 76.2793 88.6172 76.1855 88.1543 76.1855C87.7441 76.1855 87.3867 76.2559 87.082 76.3965C86.7832 76.5371 86.5283 76.7275 86.3174 76.9678C86.1064 77.2021 85.9336 77.4717 85.7988 77.7764C85.6699 78.0752 85.5732 78.3857 85.5088 78.708V80.8262C85.6025 81.2363 85.7549 81.6318 85.9658 82.0127C86.1826 82.3877 86.4697 82.6953 86.8271 82.9355C87.1904 83.1758 87.6387 83.2959 88.1719 83.2959C88.6113 83.2959 88.9863 83.208 89.2969 83.0322C89.6133 82.8506 89.8682 82.6016 90.0615 82.2852C90.2607 81.9688 90.4072 81.6025 90.501 81.1865C90.5947 80.7705 90.6416 80.3252 90.6416 79.8506ZM96.0996 71V84.5H94.4648V71H96.0996ZM102.656 84.6758C101.994 84.6758 101.394 84.5645 100.854 84.3418C100.321 84.1133 99.8613 83.7939 99.4746 83.3838C99.0938 82.9736 98.8008 82.4873 98.5957 81.9248C98.3906 81.3623 98.2881 80.7471 98.2881 80.0791V79.71C98.2881 78.9365 98.4023 78.248 98.6309 77.6445C98.8594 77.0352 99.1699 76.5195 99.5625 76.0977C99.9551 75.6758 100.4 75.3564 100.898 75.1396C101.396 74.9229 101.912 74.8145 102.445 74.8145C103.125 74.8145 103.711 74.9316 104.203 75.166C104.701 75.4004 105.108 75.7285 105.425 76.1504C105.741 76.5664 105.976 77.0586 106.128 77.627C106.28 78.1895 106.356 78.8047 106.356 79.4727V80.2021H99.2549V78.875H104.73V78.752C104.707 78.3301 104.619 77.9199 104.467 77.5215C104.32 77.123 104.086 76.7949 103.764 76.5371C103.441 76.2793 103.002 76.1504 102.445 76.1504C102.076 76.1504 101.736 76.2295 101.426 76.3877C101.115 76.54 100.849 76.7686 100.626 77.0732C100.403 77.3779 100.23 77.75 100.107 78.1895C99.9844 78.6289 99.9229 79.1357 99.9229 79.71V80.0791C99.9229 80.5303 99.9844 80.9551 100.107 81.3535C100.236 81.7461 100.421 82.0918 100.661 82.3906C100.907 82.6895 101.203 82.9238 101.549 83.0938C101.9 83.2637 102.299 83.3486 102.744 83.3486C103.318 83.3486 103.805 83.2314 104.203 82.9971C104.602 82.7627 104.95 82.4492 105.249 82.0566L106.233 82.8389C106.028 83.1494 105.768 83.4453 105.451 83.7266C105.135 84.0078 104.745 84.2363 104.282 84.4121C103.825 84.5879 103.283 84.6758 102.656 84.6758Z" fill="black"/>
<circle cx="71.25" cy="27.75" r="27.25" fill="#2D3240" stroke="#E1E3E9"/>
<g clip-path="url(#clip0_4_18)">
<path d="M31.5225 13.5C29.9911 13.6034 28.3521 14.5146 27.3375 15.7444C26.4494 16.8265 25.7048 18.4148 25.9875 20.0644C25.7344 19.9863 25.5044 19.9779 25.2281 19.8787C24.4751 19.6109 23.6144 19.3219 22.545 19.3219C20.4208 19.3219 18.2461 20.5854 16.875 22.6969C14.8795 25.7639 15.2803 31.1618 18.3094 35.775C18.843 36.585 19.4653 37.4688 20.2331 38.1712C21.0009 38.8737 21.929 39.4095 23.0175 39.42C23.9477 39.4305 24.5953 39.1205 25.1775 38.8631C25.7597 38.6058 26.3018 38.378 27.3206 38.3737C27.3269 38.3737 27.3312 38.3737 27.3375 38.3737C28.3521 38.3653 28.8773 38.5889 29.4469 38.8462C30.0164 39.1036 30.6576 39.4284 31.59 39.42C32.6995 39.4116 33.6424 38.8041 34.425 38.0531C35.2076 37.3022 35.8509 36.3804 36.3825 35.5725C37.144 34.4123 37.4498 33.7795 38.0362 32.4844C38.0974 32.3494 38.0995 32.1933 38.0405 32.0562C37.9835 31.9191 37.8717 31.8115 37.7325 31.7587C35.813 31.0331 34.7182 29.3351 34.56 27.54C34.4018 25.7449 35.1612 23.8971 37.0744 22.8487C37.2157 22.7728 37.3148 22.6399 37.3486 22.4838C37.3802 22.3277 37.3423 22.1632 37.2431 22.0387C35.8699 20.3323 33.9377 19.3219 32.0456 19.3219C30.839 19.3219 29.9531 19.6066 29.2275 19.8787C29.1073 19.9252 29.0187 19.9209 28.9069 19.9631C29.643 19.575 30.2927 19.0371 30.78 18.4106C31.6659 17.2737 32.3494 15.6558 32.0962 13.9556C32.054 13.6772 31.803 13.4789 31.5225 13.5ZM30.9487 14.7825C30.9129 15.873 30.5395 16.9404 29.9194 17.7356C29.2697 18.5709 28.177 19.1489 27.1181 19.3219C27.1371 18.2735 27.5505 17.1872 28.1812 16.4194C28.8436 15.6178 29.9405 15.0398 30.9487 14.7825ZM22.545 20.4019C23.4162 20.4019 24.1144 20.6276 24.8569 20.8912C25.5994 21.1549 26.3819 21.465 27.3037 21.465C28.2044 21.465 28.9174 21.1528 29.6156 20.8912C30.3138 20.6297 31.0099 20.4019 32.0456 20.4019C33.3977 20.4019 34.8595 21.1043 36.0112 22.3256C34.1676 23.6271 33.3049 25.6563 33.48 27.6244C33.6551 29.6135 34.8532 31.5014 36.8212 32.4844C36.3951 33.4125 36.1146 34.0263 35.4881 34.9819C34.9713 35.7687 34.3575 36.6293 33.6825 37.2769C33.0075 37.9244 32.2924 38.3337 31.5731 38.34C30.8791 38.3463 30.4847 38.1396 29.8856 37.8675C29.2865 37.5954 28.5124 37.2832 27.3206 37.2937C26.1309 37.3001 25.3462 37.5996 24.7387 37.8675C24.1312 38.1354 23.7326 38.3463 23.0344 38.34C22.2961 38.3337 21.6105 37.9751 20.9587 37.3781C20.3069 36.7812 19.7184 35.9669 19.2037 35.1844C16.3687 30.8644 16.1409 25.7892 17.7694 23.2875C18.9633 21.4502 20.8596 20.4019 22.545 20.4019Z" fill="#E1E3E9"/>
</g>
<g clip-path="url(#clip1_4_18)">
<path d="M60.9563 22.7316C60.4653 22.7316 60.0486 22.9028 59.7062 23.2453C59.3637 23.5878 59.1924 23.9988 59.1924 24.4784V31.8432C59.1924 32.3349 59.3636 32.7511 59.7062 33.0937C60.0486 33.4362 60.4653 33.6074 60.9563 33.6074C61.447 33.6074 61.8612 33.4362 62.1983 33.0937C62.5348 32.7512 62.7036 32.3349 62.7036 31.8432V24.4784C62.7036 23.9987 62.5323 23.5878 62.1898 23.2453C61.8472 22.9028 61.436 22.7316 60.9563 22.7316Z" fill="#E1E3E9"/>
<path d="M75.138 16.1203L76.3541 13.877C76.4339 13.7284 76.4055 13.6146 76.2686 13.5345C76.1201 13.4654 76.0059 13.5004 75.9261 13.637L74.6931 15.8982C73.6081 15.4185 72.4605 15.1782 71.2503 15.1782C70.0399 15.1782 68.8923 15.4186 67.8076 15.8982L66.5745 13.637C66.4944 13.5004 66.3802 13.4657 66.232 13.5345C66.0949 13.6149 66.0665 13.7284 66.1466 13.877L67.3627 16.1203C66.1296 16.7491 65.1475 17.6249 64.4167 18.7496C63.686 19.8748 63.3205 21.1045 63.3205 22.4408H79.163C79.163 21.1048 78.7974 19.8751 78.0667 18.7496C77.3359 17.6249 76.3595 16.7491 75.138 16.1203ZM68.1073 19.3832C67.9757 19.515 67.8187 19.5806 67.6361 19.5806C67.4532 19.5806 67.2993 19.515 67.1737 19.3832C67.0482 19.252 66.9854 19.0956 66.9854 18.9124C66.9854 18.7298 67.0482 18.573 67.1737 18.4415C67.2993 18.3103 67.4535 18.2447 67.6361 18.2447C67.8187 18.2447 67.9757 18.3103 68.1073 18.4415C68.2385 18.5733 68.3044 18.7298 68.3044 18.9124C68.304 19.0953 68.2381 19.252 68.1073 19.3832ZM75.3263 19.3832C75.2005 19.515 75.0462 19.5806 74.864 19.5806C74.681 19.5806 74.5239 19.515 74.3927 19.3832C74.2612 19.252 74.1956 19.0956 74.1956 18.9124C74.1956 18.7298 74.2612 18.573 74.3927 18.4415C74.5239 18.3103 74.681 18.2447 74.864 18.2447C75.0465 18.2447 75.2004 18.3103 75.3263 18.4415C75.4519 18.5733 75.5146 18.7298 75.5146 18.9124C75.5146 19.0953 75.4518 19.252 75.3263 19.3832Z" fill="#E1E3E9"/>
<path d="M63.3885 34.4637C63.3885 34.9894 63.5711 35.4345 63.9363 35.7997C64.3019 36.1649 64.7469 36.3475 65.2723 36.3475H66.5398L66.5571 40.2358C66.5571 40.7268 66.7284 41.1437 67.0709 41.4863C67.4133 41.8288 67.8246 42.0001 68.304 42.0001C68.7947 42.0001 69.2116 41.8288 69.5542 41.4863C69.8967 41.1437 70.0679 40.7268 70.0679 40.2358V36.3478H72.4314V40.2358C72.4314 40.7268 72.6026 41.1437 72.9452 41.4863C73.2877 41.8288 73.7042 42.0001 74.1953 42.0001C74.6861 42.0001 75.103 41.8288 75.4455 41.4863C75.7881 41.1437 75.9593 40.7268 75.9593 40.2358V36.3478H77.2439C77.7576 36.3478 78.1969 36.1652 78.5628 35.8C78.9279 35.4348 79.1106 34.9897 79.1106 34.464V23.0567H63.3885V34.4637Z" fill="#E1E3E9"/>
<path d="M81.5437 22.7316C81.0639 22.7316 80.653 22.9003 80.3105 23.2368C79.968 23.5739 79.7968 23.9881 79.7968 24.4784V31.8432C79.7968 32.3349 79.9679 32.7511 80.3105 33.0937C80.653 33.4362 81.0642 33.6074 81.5437 33.6074C82.0344 33.6074 82.4513 33.4362 82.7938 33.0937C83.1364 32.7511 83.3076 32.3349 83.3076 31.8432V24.4784C83.3076 23.988 83.1364 23.5739 82.7938 23.2368C82.4513 22.9003 82.0344 22.7316 81.5437 22.7316Z" fill="#E1E3E9"/>
</g>
<defs>
<clipPath id="clip0_4_18">
<rect width="27" height="27" fill="white" transform="translate(13.5 13.5)"/>
</clipPath>
<clipPath id="clip1_4_18">
<rect width="28.5" height="28.5" fill="white" transform="translate(57 13.5)"/>
</clipPath>
</defs>
</svg>
